<?xml version="1.0" standalone="no"?>
<!DOCTYPE svg PUBLIC "-//W3C//DTD SVG 1.1//EN" "http://www.w3.org/Graphics/SVG/1.1/DTD/svg11.dtd" >
<svg xmlns="http://www.w3.org/2000/svg">
<metadata>
Created by FontForge 20120731 at Thu Nov 26 11:36:51 2015
 By Ads
</metadata>
<defs>
<font id="iconfont" horiz-adv-x="1024" >
  <font-face 
    font-family="iconfont"
    font-weight="500"
    font-stretch="normal"
    units-per-em="1024"
    panose-1="2 0 6 3 0 0 0 0 0 0"
    ascent="896"
    descent="-128"
    x-height="792"
    bbox="0 -224 1536 812"
    underline-thickness="50"
    underline-position="-100"
    unicode-range="U+0078-E63C"
  />
<missing-glyph horiz-adv-x="374" 
d="M34 0v682h272v-682h-272zM68 34h204v614h-204v-614z" />
    <glyph glyph-name=".notdef" horiz-adv-x="374" 
d="M34 0v682h272v-682h-272zM68 34h204v614h-204v-614z" />
    <glyph glyph-name=".null" horiz-adv-x="0" 
 />
    <glyph glyph-name="nonmarkingreturn" horiz-adv-x="341" 
 />
    <glyph glyph-name="x" unicode="x" horiz-adv-x="1001" 
d="M281 543q-27 -1 -53 -1h-83q-18 0 -36.5 -6t-32.5 -18.5t-23 -32t-9 -45.5v-76h912v41q0 16 -0.5 30t-0.5 18q0 13 -5 29t-17 29.5t-31.5 22.5t-49.5 9h-133v-97h-438v97zM955 310v-52q0 -23 0.5 -52t0.5 -58t-10.5 -47.5t-26 -30t-33 -16t-31.5 -4.5q-14 -1 -29.5 -0.5
t-29.5 0.5h-32l-45 128h-439l-44 -128h-29h-34q-20 0 -45 1q-25 0 -41 9.5t-25.5 23t-13.5 29.5t-4 30v167h911zM163 247q-12 0 -21 -8.5t-9 -21.5t9 -21.5t21 -8.5q13 0 22 8.5t9 21.5t-9 21.5t-22 8.5zM316 123q-8 -26 -14 -48q-5 -19 -10.5 -37t-7.5 -25t-3 -15t1 -14.5
t9.5 -10.5t21.5 -4h37h67h81h80h64h36q23 0 34 12t2 38q-5 13 -9.5 30.5t-9.5 34.5q-5 19 -11 39h-368zM336 498v228q0 11 2.5 23t10 21.5t20.5 15.5t34 6h188q31 0 51.5 -14.5t20.5 -52.5v-227h-327z" />
    <glyph glyph-name="uniE600" unicode="&#xe600;" 
d="M474 812h76v-1024h-76v1024z" />
    <glyph glyph-name="uniE601" unicode="&#xe601;" 
d="M161.5 398q40.5 0 69.5 -28.5t29 -69.5t-29 -69.5t-69.5 -28.5t-69 28.5t-28.5 69.5t28.5 69.5t69 28.5zM512 398q41 0 69.5 -28.5t28.5 -69.5t-28.5 -69.5t-69.5 -28.5t-69.5 28.5t-28.5 69.5t28.5 69.5t69.5 28.5zM862.5 398q40.5 0 69 -28.5t28.5 -69.5t-28.5 -69.5
t-69 -28.5t-69.5 28.5t-29 69.5t29 69.5t69.5 28.5z" />
    <glyph glyph-name="uniE602" unicode="&#xe602;" 
d="M574 313l289 280q10 10 10 24.5t-10.5 24.5t-25 10t-25.5 -10l-289 -280l-289 280q-10 10 -25 10t-25.5 -10t-10.5 -24.5t10 -24.5l289 -280l-289 -280q-10 -10 -10 -24.5t10.5 -24.5t25.5 -10t25 10l289 280l289 -280q11 -10 25.5 -10t25 10t10.5 24.5t-10 24.5z" />
    <glyph glyph-name="uniE603" unicode="&#xe603;" 
d="M62 749v-899h900v899h-900zM738 160l-74 -74l-137 137l-138 -137l-73 74l137 137l-137 137l73 74l138 -137l137 137l74 -74l-137 -137zM738 160z" />
    <glyph glyph-name="uniE604" unicode="&#xe604;" 
d="M512 738q-107 0 -198 -53t-143.5 -143.5t-52.5 -197.5t52.5 -198t143.5 -144t198 -53t198 53t143.5 144t52.5 198t-52.5 197.5t-143.5 143.5t-198 53zM512 -9q-96 0 -177 47t-128.5 128.5t-47.5 177t47.5 177t128.5 128.5t177 47t177 -47t128.5 -128.5t47.5 -177
t-47.5 -177t-128.5 -128.5t-177 -47zM724 506l-279 -279l-145 144q-6 7 -15 7t-15 -6.5t-6 -15.5t6 -15l159 -160q7 -6 16 -6t15 6l294 294q6 7 6 16t-6 15t-15 6t-15 -6z" />
    <glyph glyph-name="uniE605" unicode="&#xe605;" 
d="M512 747q-91 0 -173.5 -35.5t-142.5 -95.5t-95.5 -142.5t-35.5 -173.5t35.5 -173.5t95.5 -142.5t142.5 -95.5t173.5 -35.5t173.5 35.5t142.5 95.5t95.5 142.5t35.5 173.5t-35.5 173.5t-95.5 142.5t-142.5 95.5t-173.5 35.5zM686 250h-348v100h348v-100z" />
    <glyph glyph-name="uniE606" unicode="&#xe606;" 
d="M9 812q-4 -47 -4 -82q0 -124 33 -242.5t92 -218.5t143 -184.5t184.5 -143.5t219 -91.5t242.5 -32.5q48 0 104 6v989h-1014zM769 188l-109 138l-128 -138h-117l187 215l-176 236h121l120 -169l123 169h105l-171 -225l173 -226h-128z" />
    <glyph glyph-name="uniE607" unicode="&#xe607;" 
d="M747 300q0 -39 27.5 -66.5t66 -27.5t66 27.5t27.5 66.5t-27.5 66.5t-66 27.5t-66 -27.5t-27.5 -66.5zM90 300q0 -39 27.5 -66.5t66 -27.5t66 27.5t27.5 66.5t-27.5 66.5t-66 27.5t-66 -27.5t-27.5 -66.5zM418 300q0 -39 27.5 -66.5t66.5 -27.5t66.5 27.5t27.5 66.5
t-27.5 66.5t-66.5 27.5t-66.5 -27.5t-27.5 -66.5z" />
    <glyph glyph-name="uniE608" unicode="&#xe608;" 
d="M688 155l-147 147l147 146q6 7 6 16t-6.5 16t-16 7t-15.5 -7l-147 -146l-146 146q-7 7 -16.5 7t-16 -7t-6.5 -16t7 -16l146 -146l-146 -147q-7 -7 -7 -16t6.5 -16t16 -7t16.5 7l146 147l147 -147q6 -7 15.5 -7t16 7t6.5 16t-6 16zM938 302q0 116 -57.5 215t-156 156.5
t-215 57.5t-215.5 -57.5t-156.5 -156.5t-57.5 -215.5t57.5 -215.5t156.5 -156.5t215 -57.5q143 0 259 88q4 6 4 12q0 8 -5.5 13.5t-13.5 5.5t-13 -5h-1q-103 -76 -229 -76q-106 0 -195.5 52t-141.5 141.5t-52 195t52 195t141.5 141.5t195 52t195 -52t141.5 -141.5t52 -194.5
q0 -99 -44 -182q-1 -4 -1 -6q0 -8 5.5 -13.5t13.5 -5.5q13 0 18 13q48 93 48 197z" />
    <glyph glyph-name="uniE609" unicode="&#xe609;" 
d="M284 -69q-14 -14 -14 -33t13.5 -32.5t32.5 -13.5t32 14l397 401q13 14 13 33t-13 33l-397 401q-13 14 -32 14t-32.5 -13.5t-13.5 -32.5t13 -33l351 -369l-350 -369v0zM284 -69z" />
    <glyph glyph-name="uniE60A" unicode="&#xe60a;" 
d="M512 294zM74 294q0 89 35 170t93.5 139.5t139.5 93.5t170 35t170 -35t139.5 -93.5t93.5 -139.5t35 -170t-35 -170t-93.5 -139.5t-139.5 -93.5t-170 -35t-170 35t-139.5 93.5t-93.5 139.5t-35 170zM814 482q-8 9 -19.5 9.5t-19.5 -7.5l-318 -318l-208 208q-8 8 -19.5 8
t-20.5 -8v-1q-8 -8 -8 -20t8 -20l228 -228q4 -4 10 -6q17 -8 29 5l340 340q7 7 6.5 18.5t-8.5 19.5z" />
    <glyph glyph-name="uniE60B" unicode="&#xe60b;" 
d="M693 465q15 0 35 -2q-23 109 -127.5 181.5t-238.5 72.5q-98 0 -181 -40.5t-132 -111.5t-49 -156q0 -143 145 -245l-36 -109l127 64q6 -2 25 -5.5t27 -5t22.5 -4t26.5 -3t25 -0.5q16 0 34 1q-11 38 -11 76q0 119 89.5 203t218.5 84zM498 563q21 0 33.5 -12.5t12.5 -33
t-12.5 -33t-33.5 -12.5t-37.5 13t-16.5 32.5t16.5 32.5t37.5 13zM245 472q-22 0 -38.5 13t-16.5 32.5t16.5 32.5t38.5 13q20 0 32.5 -12.5t12.5 -33t-12.5 -33t-32.5 -12.5zM1024 182q0 71 -43 132t-113.5 96t-151.5 35q-129 0 -218.5 -77t-89.5 -186t89.5 -186t218.5 -77
q37 0 109 18l99 -54l-27 90q127 96 127 209zM616 228q-13 0 -24.5 11t-11.5 24.5t11.5 25t24.5 11.5q20 0 33 -11t13 -25.5t-13 -25t-33 -10.5zM815 228q-13 0 -24.5 11t-11.5 24.5t11.5 25t24.5 11.5q20 0 33 -11t13 -25.5t-13 -25t-33 -10.5z" />
    <glyph glyph-name="uniE60C" unicode="&#xe60c;" 
d="M544 684h-64v-352h-352v-64h352v-352h64v352h352v64h-352v352z" />
    <glyph glyph-name="uniE60D" unicode="&#xe60d;" horiz-adv-x="1536" 
d="M0 480v-608q0 -40 28 -68t68 -28h1344q40 0 68 28t28 68v608h-1536zM256 96h512v-64h-512v64zM256 288h768v-64h-768v64zM0 704v-96h1536v96q0 40 -28 68t-68 28h-1344q-40 0 -68 -28t-28 -68z" />
    <glyph glyph-name="uniE60E" unicode="&#xe60e;" 
d="M495 812h38v-1024h-38v1024z" />
    <glyph glyph-name="uniE60F" unicode="&#xe60f;" 
d="M499 467q20 0 32 12t12 32t-12 32t-32 12q-21 0 -37 -12.5t-16 -31.5t16 -31.5t37 -12.5zM253 555q-21 0 -37 -12.5t-16 -31.5t16 -31.5t37 -12.5q20 0 32 12t12 32t-12 32t-32 12zM1024 186q0 104 -84 182t-203 87v6q-24 111 -130 185t-240 74q-99 0 -184 -42
t-134 -114.5t-49 -158.5q0 -142 138 -243l-32 -94q-3 -10 5 -17q4 -4 10 -4q4 0 8 2l117 59l15 -3q68 -14 106 -14q17 0 34 1q7 1 11 6q33 -81 114.5 -132t183.5 -51q37 0 103 17l91 -50q3 -2 7 -2q6 0 11 3q8 7 5 18l-23 77q120 95 120 208zM399 124q-16 -1 -32 -1
q-35 0 -100 13l-20 4q-5 1 -10 -1l-88 -45l23 69q3 12 -6 19q-134 93 -134 223q0 77 45 142t122 103t168 38q123 0 219.5 -66t118.5 -166q-129 -1 -219.5 -80t-90.5 -190q0 -31 9 -63q-3 1 -5 1zM875 -4q-8 -6 -5 -17l15 -50l-62 34q-4 2 -8 2q-2 0 -4 -1q-67 -17 -101 -17
q-117 0 -200 70t-83 169t83 169t200 70q115 0 198.5 -71t83.5 -168q0 -49 -30 -98t-87 -92zM613 300q-13 0 -24 -11t-11 -24t11 -24t24 -11q19 0 31.5 10.5t12.5 24.5t-12.5 24.5t-31.5 10.5zM806 300q-13 0 -24 -11t-11 -24t11 -24t24 -11q19 0 31.5 10.5t12.5 24.5
t-12.5 24.5t-31.5 10.5z" />
    <glyph glyph-name="uniE610" unicode="&#xe610;" 
d="M510 812q-139 0 -256 -68t-185.5 -185.5t-68.5 -256.5t68.5 -256.5t185.5 -185.5t256 -68q211 0 360.5 149.5t149.5 360.5q0 139 -68 256t-185.5 185.5t-256.5 68.5zM719 160q14 -13 14 -33t-14 -34t-34 -14t-33 14l-142 141l-141 -141q-14 -14 -34 -14t-34 14t-14 33.5
t14 33.5l141 142l-141 141q-14 14 -14 34t14 34t34 14t34 -14l141 -141l142 141q14 14 33.5 14t33.5 -14t14 -34t-14 -34l-141 -141z" />
    <glyph glyph-name="uniE611" unicode="&#xe611;" 
d="M746.5 -136.5q12.5 12.5 12.5 30.5t-12 30l-9 8l-7 8l-42 42l-60 60l-1 1l-1 1l-1 2l-1 1l-1 1l-1 1l-1 1l-1 1l-1 1l-1 1l-1 1l-1 1l-1 1l-1 1l-1 1l-1 1l-1 1l-1 1l-1 1l-1 1l-1 1l-1 1l-1 1l-1 1l-1 1l-1 1l-1 1l-1 1l-1 1l-1 1l-1 1l-1 1l-1 1l-1 1l-1 1l-1 1l-1 1
l-1 1l-1 1l-1 1l-1 1l-1 1l-1 1l-1 1l-1 1l-1 1l-1 1l-1 1l-1 1l-1 1l-1 1l-1 1l-1 1l-1 1l-1 1l-1 1l-1 1l-1 1l-1 1l-1 1l-1 1l-1 1l-1 1l-1 1l-1 1l-1 1l-1 1l-1 1l-2 1l-72 72q-10 12 -32 32l-33 33l-25 25l-26 26l-1 1l28 27l60 60q11 12 34.5 35t35.5 35l71 72l66 65
l51 51l28 28l3 3q12 13 12 31t-12.5 30t-30.5 12t-30 -12l-16 -16l-42 -42l-60 -60l-70 -70l-71 -71l-66 -66l-50 -50l-29 -29l-3 -3q-12 -12 -12 -30t12 -31q3 -2 8 -7.5t8 -7.5l42 -42l60 -60q47 -48 70 -70l1 -1l1 -1l1 -1l1 -1l1 -1l1 -1l1 -1l1 -1l1 -1l1 -1l1 -1l1 -1
l1 -1l1 -1l1 -1l1 -1l1 -1l1 -1l1 -1l1 -1l1 -1l1 -1l1 -1l2 -2l1 -1l1 -1l1 -1l1 -1l1 -1l1 -1l1 -1l1 -1l1 -1l1 -1l1 -1l1 -1l1 -1l1 -1l1 -1l1 -1l1 -1l1 -1l1 -1l1 -1l1 -1l1 -1l1 -1l1 -1l1 -1l1 -1l1 -1l1 -1l1 -1l1 -1l1 -1l1 -1l1 -1l1 -1l1 -1l1 -1l1 -1l1 -1
l1 -1l1 -1l1 -1l1 -1l1 -1l1 -1l1 -1l1 -1l1 -1q32 -33 65 -65q16 -17 51 -51l28 -28l2 -2l1 -1q12 -13 30 -13t30.5 12.5z" />
    <glyph glyph-name="uniE612" unicode="&#xe612;" 
d="M750 668q14 14 14 35t-14 36q-15 15 -36 15t-36 -15l-404 -403q-14 -15 -14 -36t14 -36l404 -403q15 -15 36 -15t36 15q14 15 14 35.5t-14 35.5l-368 368z" />
    <glyph glyph-name="uniE613" unicode="&#xe613;" 
d="M984 499q-39 92 -110 163t-163 110q-95 40 -199 40t-199 -40q-92 -39 -163 -110t-110 -163q-40 -95 -40 -199t40 -199q39 -92 110 -163t163 -110q95 -40 199 -40t199 40q92 39 163 110t110 163q40 95 40 199t-40 199zM723 83q-10 -10 -25 -10t-26 10l-164 164l-164 -164
h-1q-10 -11 -25 -11t-26 11t-11 26t11 25l164 165l-164 164q-11 11 -11 26t11 25q10 11 25 11t26 -11l164 -164l164 165h1q10 10 25 10t26 -10.5t11 -25.5t-11 -26l-164 -164l164 -164q11 -11 11 -26t-11 -26z" />
    <glyph glyph-name="uniE614" unicode="&#xe614;" 
d="M921 337h-372v372q0 15 -11 26t-26 11t-26 -11t-11 -26v-372h-372q-15 0 -26 -11t-11 -26t11 -26t26 -11h372v-372q0 -16 11 -26.5t26 -10.5t26 10.5t11 26.5v372h372q16 0 26.5 11t10.5 26t-10.5 26t-26.5 11z" />
    <glyph glyph-name="uniE615" unicode="&#xe615;" horiz-adv-x="1345" 
d="M63 555h1218v-45h-1218v45zM63 374h1218v-45h-1218v45zM198 239h316v-45h-316v45zM604 239h136v-45h-136v45zM198 104h181v-45h-181v45zM1146 -144h-948q-67 0 -112 45t-45 113v586q0 68 45 113t112 45h948q67 0 112.5 -45t45.5 -113v-586q0 -68 -45.5 -113t-112.5 -45z
M198 713q-47 0 -79.5 -33t-32.5 -80v-586q0 -48 32.5 -80.5t79.5 -32.5h948q47 0 80 32.5t33 80.5v586q0 47 -33 80t-80 33h-948z" />
    <glyph glyph-name="uniE616" unicode="&#xe616;" horiz-adv-x="1025" 
d="M946 565q13 14 32 14t33 -14q13 -13 13 -32t-13 -33l-466 -465q-14 -14 -33 -14t-32 14q-14 13 -14 32t14 33zM544 100q14 -14 14 -33t-14 -32q-13 -14 -32 -14t-33 14l-466 465q-13 14 -13 33t13 32q14 14 33 14t32 -14z" />
    <glyph glyph-name="uniE617" unicode="&#xe617;" 
d="M150 407q-44 0 -75.5 -31.5t-31.5 -75.5t31.5 -75.5t75.5 -31.5t75.5 31.5t31.5 75.5t-31.5 75.5t-75.5 31.5zM149.5 236q-26.5 0 -45 18.5t-18.5 45.5t18.5 45.5t45 18.5t45.5 -18.5t19 -45.5t-19 -45.5t-45.5 -18.5zM512 407q-44 0 -75.5 -31.5t-31.5 -75.5t31.5 -75.5
t75.5 -31.5t75.5 31.5t31.5 75.5t-31.5 75.5t-75.5 31.5zM511.5 236q-26.5 0 -45 18.5t-18.5 45.5t18.5 45.5t45 18.5t45.5 -18.5t19 -45.5t-19 -45.5t-45.5 -18.5zM874 407q-44 0 -75.5 -31.5t-31.5 -75.5t31.5 -75.5t75.5 -31.5t75.5 31.5t31.5 75.5t-31.5 75.5
t-75.5 31.5zM874.5 236q-26.5 0 -45.5 18.5t-19 45.5t19 45.5t45.5 18.5t45 -18.5t18.5 -45.5t-18.5 -45.5t-45 -18.5z" />
    <glyph glyph-name="uniE618" unicode="&#xe618;" 
d="M642 430zM1007 795q-16 17 -39.5 17t-39.5 -17l-911 -911q-17 -16 -17 -39.5t17 -39.5q16 -17 39.5 -17t39.5 17l911 911q17 16 17 39.5t-17 39.5zM17 795q-17 -16 -17 -39.5t17 -39.5l911 -911q16 -17 39.5 -17t39.5 17q17 16 17 39.5t-17 39.5l-911 911
q-16 17 -39.5 17t-39.5 -17z" />
    <glyph glyph-name="uniE619" unicode="&#xe619;" 
d="M290 801q23 0 40 -17l444 -444q17 -17 17 -40t-17 -40l-444 -444q-17 -17 -40 -17t-40 17.5t-17 40t17 39.5l401 404l-401 401q-17 17 -17 40t17 40q16 20 40 20z" />
    <glyph glyph-name="uniE61A" unicode="&#xe61a;" 
d="M712 476h15q-20 111 -122.5 185t-238.5 74q-100 0 -184 -41t-133 -111.5t-49 -153.5q0 -73 38.5 -136.5t105.5 -106.5l3 -2l-35 -111l132 68q4 -1 6 -2q56 -16 116 -16q10 0 24 1q-11 36 -11 73q0 76 44.5 140.5t121 101.5t167.5 37zM493 584q21 0 36 -14.5t15 -35
t-15 -35t-36 -14.5t-36 14.5t-15 35t15 35t36 14.5zM238.5 485q-21.5 0 -36.5 14.5t-15 35t15 35t36.5 14.5t36.5 -14.5t15 -35t-15 -35t-36.5 -14.5zM406 195q0 -107 90.5 -182.5t218.5 -75.5q50 0 98 13l5 2l111 -57l-29 93q2 1 2 2q57 36 89.5 90t32.5 115
q0 107 -90.5 183t-218.5 76t-218.5 -76t-90.5 -183zM779 284.5q0 17.5 12.5 29.5t30.5 12t31 -12t13 -29.5t-13 -30t-31 -12.5t-30.5 12.5t-12.5 30zM564 284.5q0 17.5 12.5 29.5t30.5 12t31 -12t13 -29.5t-13 -30t-31 -12.5t-30.5 12.5t-12.5 30z" />
    <glyph glyph-name="uniE61B" unicode="&#xe61b;" 
d="M512 738q-107 0 -198 -53t-143.5 -143.5t-52.5 -197.5t52.5 -198t143.5 -144t198 -53t198 53t143.5 144t52.5 198t-52.5 197.5t-143.5 143.5t-198 53zM757 477l-298 -298q-6 -6 -15 -6t-16 6l-161 162q-6 6 -6 15t6.5 15.5t15.5 6.5t15 -6l146 -146l282 282q6 6 15 6
t15.5 -6.5t6.5 -15.5t-6 -15z" />
    <glyph glyph-name="uniE61C" unicode="&#xe61c;" 
d="M512 750q-91 0 -174 -35t-143 -95t-95.5 -143t-35.5 -174t35.5 -174t95.5 -143t143 -95.5t174 -35.5t174 35.5t143 95.5t95.5 143t35.5 174t-35.5 174t-95.5 143t-143 95t-174 35zM475 78q-11 -11 -26.5 -11t-26.5 11l-221 215q-11 11 -11 26t11 26t26.5 11t26.5 -11
l194 -190l379 370q11 10 26.5 10t26.5 -10.5t11 -25.5t-11 -26z" />
    <glyph glyph-name="uniE61D" unicode="&#xe61d;" 
d="M512 800q-136 0 -251 -67t-182 -182t-67 -251t67 -251t182 -182t251 -67t251 67t182 182t67 251t-67 251t-182 182t-251 67zM471.5 590q11.5 15 40.5 15q26 0 38 -14t12 -45q0 -8 -1 -18l-34 -381h-35l-32 378v19q0 31 11.5 46zM547.5 14q-15.5 -15 -37 -15t-37 15
t-15.5 37t15.5 37.5t37 15.5t37 -15t15.5 -37.5t-15.5 -37.5z" />
    <glyph glyph-name="uniE61E" unicode="&#xe61e;" 
d="M512 -212q-139 0 -257 68.5t-186.5 186.5t-68.5 257t68.5 257t186.5 186.5t257 68.5t257 -68.5t186.5 -186.5t68.5 -257t-68.5 -257t-186.5 -186.5t-257 -68.5zM512 744q-90 0 -172.5 -35.5t-141.5 -94.5t-94.5 -141.5t-35.5 -172.5t35.5 -172.5t94.5 -141.5t141.5 -94.5
t172.5 -35.5t172.5 35.5t141.5 94.5t94.5 141.5t35.5 172.5t-35.5 172.5t-94.5 141.5t-141.5 94.5t-172.5 35.5zM512 -7q-28 0 -48 20t-20 48t20 48t48 20t48 -20t20 -48t-20 -48t-48 -20zM512 198q-14 0 -24 20t-10 48l-34 307q0 28 20 48t48 20t48 -20t20 -48l-34 -307
q0 -28 -10 -48t-24 -20z" />
    <glyph glyph-name="uniE61F" unicode="&#xe61f;" 
d="M509 749q-91 0 -173.5 -35t-142.5 -95t-95 -142.5t-35 -173.5t35 -173.5t95 -142t142.5 -95t173.5 -35.5t173.5 35.5t142 95t95 142t35.5 173.5t-35.5 173.5t-95 142.5t-142 95t-173.5 35zM509 15q-13 0 -22.5 9.5t-9.5 22.5t9.5 22.5t22.5 9.5t22.5 -9.5t9.5 -22.5
t-9.5 -22.5t-22.5 -9.5zM514 127h-10l-27 406h64z" />
    <glyph glyph-name="uniE620" unicode="&#xe620;" 
d="M512 -212q139 0 257 68.5t186.5 186.5t68.5 257t-68.5 257t-186.5 186.5t-257 68.5t-257 -68.5t-186.5 -186.5t-68.5 -257t68.5 -257t186.5 -186.5t257 -68.5zM469 44q0 18 12.5 30.5t30.5 12.5t30.5 -12.5t12.5 -30.5t-12.5 -30.5t-30.5 -12.5t-30.5 12.5t-12.5 30.5z
M469 556q0 18 12.5 30.5t30.5 12.5t30.5 -12.5t12.5 -30.5v-342q0 -17 -12.5 -29.5t-30.5 -12.5t-30.5 12.5t-12.5 29.5v342z" />
    <glyph glyph-name="uniE621" unicode="&#xe621;" 
d="M580 371l-44 -79q-17 -33 -21 -44q-12 26 -65 123h-40l75 -130h-62v-28h73v-40h-73v-29h73v-58h36v58h70v29h-70v40h70v28h-60l76 130h-38zM511 749q-91 0 -174 -35.5t-143 -95.5t-95.5 -143t-35.5 -174t35.5 -173.5t95.5 -142.5t143 -95.5t174 -35.5t173.5 35.5
t142.5 95.5t95.5 142.5t35.5 173.5t-35.5 174t-95.5 143t-142.5 95.5t-173.5 35.5zM770 402q0 -83 -42 -175.5t-103.5 -153t-114 -60.5t-114 60.5t-103.5 153t-42 175.5v87q6 -5 15.5 -11t38.5 -16.5t58.5 -10.5t70 19.5t77.5 61.5q97 -113 213 -69q28 11 46 26v-87z" />
    <glyph glyph-name="uniE622" unicode="&#xe622;" 
d="M844 351l-305 447q-10 14 -27.5 14t-26.5 -14l-305 -448q-56 -88 -56 -192q0 -100 52 -185t141.5 -135t194.5 -50t194.5 50t141.5 135t52 185q0 104 -56 193zM519.5 -41q-80.5 0 -137 27.5t-56.5 65.5q0 16 11 31q20 -27 70 -44.5t112.5 -17.5t112.5 17.5t71 44.5
q11 -15 11 -31q0 -38 -57 -65.5t-137.5 -27.5zM519.5 52q-80.5 0 -137 27.5t-56.5 65.5q0 16 11 31q20 -27 70 -44.5t112.5 -17.5t112.5 17.5t71 44.5q11 -15 11 -31q0 -38 -57 -65.5t-137.5 -27.5zM519.5 145q-80.5 0 -137 27.5t-56.5 66t56.5 65.5t137 27t137.5 -27
t57 -65.5t-57 -66t-137.5 -27.5z" />
    <glyph glyph-name="uniE623" unicode="&#xe623;" 
d="M393 180q-17 -9 -30.5 -10.5t-20.5 2.5t-11.5 11t-5.5 11t-1 5l-77 179q-19 55 4 50q9 -2 22 -12q47 -36 82 -57q16 -10 35 -11.5t30 1.5l11 3l499 231q-71 88 -180 139t-236 51q-103 0 -197 -35.5t-162 -95t-108.5 -142t-40.5 -173.5q0 -104 51.5 -195.5t141.5 -154.5
l-21 -122q-1 -1 -1.5 -3t-0.5 -8t2.5 -8t8 -4t16.5 4q29 14 123 77q91 -32 188 -32q103 0 197 35.5t162 95t108.5 142t40.5 173.5q0 105 -53 198q-524 -316 -576 -345z" />
    <glyph glyph-name="uniE624" unicode="&#xe624;" 
d="M583.5 285q-1.5 27 -22.5 47q-18 19 -39.5 21t-55.5 -18l-45 45q16 6 32 -5l25 33q-20 14 -41 13.5t-41 -16.5l-11 11l-16 -16l11 -12q-18 -22 -17 -46.5t20 -42.5q18 -19 41 -21.5t52 13.5l47 -48q-9 -3 -20.5 -1.5t-22.5 8.5l-26 -33q26 -19 50 -19t46 17l21 -20l16 16
l-21 22q19 25 17.5 52zM424.5 320.5q-8.5 1.5 -14.5 8.5q-7 6 -8.5 15.5t3.5 18.5l39 -39q-11 -5 -19.5 -3.5zM541 258l-44 45q13 7 23 6t18 -9t9 -20t-6 -22zM511 748q-91 0 -173.5 -35.5t-142.5 -95.5t-95.5 -142.5t-35.5 -173.5t35.5 -173.5t95.5 -142.5t142.5 -95.5
t173.5 -35.5t173.5 35.5t142.5 95.5t95.5 142.5t35.5 173.5t-35.5 173.5t-95.5 142.5t-142.5 95.5t-173.5 35.5zM494 79l-232 223q-2 0 -3.5 13t-1.5 33v46q0 24 1 49t2 45t2 33v13q198 7 213 -8l234 -213q29 -19 -14 -69l-146 -165q-12 -11 -27.5 -11t-27.5 11zM744 243
l-146 -165q-10 -10 -15.5 -11.5t-17.5 4.5q-1 1 40.5 48.5t84.5 94.5l42 47q3 5 6 12.5t1 25t-19 28.5l-219 208q30 1 44 -10l198 -190q21 -20 22 -39.5t-21 -52.5zM359.5 487q-11.5 12 -28.5 12t-28.5 -12t-11.5 -29t11.5 -29t28.5 -12t28.5 12t11.5 29t-11.5 29z" />
    <glyph glyph-name="uniE625" unicode="&#xe625;" 
d="M637 367q3 34 3 55q0 14 -20 14q-35 0 -76 -10q-5 -1 -12 -4v-37q1 -51 2 -76q0 -3 0.5 -7.5t0.5 -6.5q4 1 13 2q23 2 33 2q26 2 34 3q4 0 16 3q3 21 6 62zM512 790q-100 0 -190.5 -39t-156 -104.5t-104.5 -156t-39 -190.5t39 -190.5t104.5 -156t156 -104.5t190.5 -39
t190.5 39t156 104.5t104.5 156t39 190.5t-39 190.5t-104.5 156t-156 104.5t-190.5 39zM467 242q-4 -9 -10 -12q-5 -2 -12 -2q-3 0 -6 4q-1 3 -12 16l-7 6q-4 5 -6 8v-71q0 -52 7 -67q0 -14 -6 -26q-5 -10 -12 -10q-9 0 -15 6q-11 9 -11 100v59q-4 -6 -16 -28
q-15 -24 -21 -42q-1 -1 -1 -2q-2 -3 -2 -4q-6 -7 -17 -7q-8 0 -14 10q-6 7 -6 19q0 3 2 6q1 2 10 15q2 2 7.5 10t8.5 13q7 9 28 35q9 11 21 22v35q-27 -3 -46 -7q-8 -3 -10 -3q-7 0 -12 9.5t-5 18.5q0 6 6 8q34 6 64 9h3q-1 14 -1 43v5v8l-7 -4q-5 -2 -8 -3l-14 -7
q-7 -4 -17 -4q-19 6 -19 22q0 14 8 23q5 1 14 3q21 4 47 12q44 11 46 12q17 4 25 4q14 -7 17 -15q0 -13 -3 -14q-6 -3 -14 -4q-21 -5 -35 -10q1 -3 1 -4q0 -4 -2 -20q-1 -9 -1 -45h8h8h10h14q16 -1 19 -10q0 -11 -2 -18t-9 -7q-8 0 -15 1h-15q-3 0 -8.5 -0.5t-9.5 -0.5v-38
q2 -2 6 -3q7 -6 25 -19q7 -5 18 -14l1 -1q2 0 3 -1q2 -1 2 -2q0 -11 -2 -17zM559 208q-2 -1 -9 -13q-8 -12 -22 -46q-12 -28 -17 -46l-3 -6q-5 -7 -17 -7q-8 0 -14 9t-6 21q0 3 1 6q1 2 11 15q4 9 13 25q11 21 23 39q14 20 19 26q5 7 10 7q18 -2 18 -13t-7 -17zM538 262h-4
q-2 -5 -9 -7q-15 0 -21 7q-6 6 -6 13l-6 167v9q-1 3 -1 6q0 12 13 12q8 0 17 -2t11 -7q53 8 92 8q15 0 27 -5t20 -14q7 -9 7 -18q0 -14 -2 -56q-2 -35 -4 -72v-7q0 -3 -3 -8q4 -4 4 -7q0 -14 -13 -14q-9 0 -17 2q-12 1 -16 1q-3 0 -42 -1q-32 -3 -47 -7zM691 105
q-2 -7 -8 -10q-5 -3 -12 -3q-3 0 -7 9q-4 10 -15 31q-10 20 -28 50q-8 11 -10 13q-4 6 -6 11q-4 3 -4 9q0 4 5 12t12 8q2 0 8 -5q3 -6 15 -22q15 -24 27 -43q18 -30 19 -32q2 -2 4 -5q3 -2 3 -5q0 -10 -3 -18z" />
    <glyph glyph-name="uniE626" unicode="&#xe626;" 
d="M512 748q-91 0 -174 -35.5t-143 -95.5t-95.5 -143t-35.5 -174t35.5 -174t95.5 -143t143 -95.5t174 -35.5t174 35.5t143 95.5t95.5 143t35.5 174t-35.5 174t-95.5 143t-143 95.5t-174 35.5zM666 490l-62 -111l-62 111h124zM523 484l62 -108h-124zM505 490l-62 -111
l-62 111h124zM361 484l62 -108h-124zM301 359h128l86 -271zM453 359h141l-66 -271zM540 88l79 271h127zM623 376l62 108l62 -108h-124z" />
    <glyph glyph-name="uniE627" unicode="&#xe627;" 
d="M406 195q-14 -8 -26 -9.5t-18 2.5t-10 9.5t-5 9t-1 4.5l-66 154q-17 48 4 43q8 -2 18 -11q41 -30 71 -49q14 -8 30.5 -9.5t26.5 1.5l9 3l431 198q-61 75 -155.5 119t-203.5 44q-120 0 -221 -51.5t-160 -139.5t-59 -192q0 -90 44.5 -168.5t122.5 -131.5l-19 -105
q0 -1 -0.5 -3t-0.5 -7t2.5 -7t7 -3.5t13.5 3.5q25 12 107 66q78 -27 163 -27q119 0 220.5 51t160 139.5t58.5 192.5q0 90 -46 170q-453 -271 -498 -296zM406 195z" />
    <glyph glyph-name="uniE628" unicode="&#xe628;" 
d="M291 630q0 23 16.5 39.5t39.5 16.5h331q23 0 39 -16.5t16 -39.5v-661q0 -23 -16 -39t-39 -16h-331q-23 0 -39.5 16t-16.5 39v661zM708 603v21q0 16 -10.5 26.5t-25.5 10.5h-319q-15 0 -26 -10.5t-11 -26.5v-21h392zM316 -4v-21q0 -15 10.5 -26t25.5 -11h320q15 0 25.5 11
t10.5 26v21h-392zM708 578h-392v-556h392v556z" />
    <glyph glyph-name="uniE629" unicode="&#xe629;" 
d="M760 756h-38h-420h-68v-68v-836h9h59h420h56h12v904h-30zM510.5 -89q-18.5 0 -31.5 13.5t-13 32t13 32t31.5 13.5t32 -13.5t13.5 -32t-13.5 -32t-32 -13.5zM302 60v628h420v-628h-420z" />
    <glyph glyph-name="uniE62A" unicode="&#xe62a;" 
d="M693 812h-362q-36 0 -61 -25t-25 -60v-852q0 -35 25.5 -61t60.5 -26h362q35 0 60.5 26t25.5 61v852q0 35 -25 60t-61 25zM467 746h102q7 0 12 -5t5 -12.5t-5 -12t-12 -4.5h-102q-7 0 -12 4.5t-5 12t5 12.5t12 5zM518 -176q-21 0 -36 15t-15 36t15 36t36 15t36 -15t15 -36
t-15 -36t-36 -15zM738 -28h-452v676h452v-676z" />
    <glyph glyph-name="uniE62B" unicode="&#xe62b;" horiz-adv-x="1000" 
d="M0 800h1000v-1000h-1000v1000zM62 -13h63v63h63v-125h-126v-62h126h125v62v125v63h-188h-63v-126zM62 238h63h63v62h62v62h-62v-62h-63v62h-63v-124zM313 550v63v62v63h-63v-63h-62v-62h62v-63h-125v188h-63v-188v-62h63h125h63v62zM375 362h-62v-124h62h63v62h-63v62z
M563 613h-63v62h63v63h-63v-63h-62v-62v-63h62h63v63zM563 488h-63v-63h-62v-63h62v63h63v63zM938 550v125h-63v63h-62v-125h62v-63h-125v188h-63v-188v-62h63h125h63v62zM938 50h-63v63h63v62h-63v63h63v62h-63v62h-125v-62h-63v62h-124v-62h-63v-125h-62v-188h62v-62h-62
v-63h62h63v63h62v-63h125v63h63h62v62h63v63zM750 175h-125v63h188v-63h62v-63h-125v63zM813 300h62v-62h-62v62zM625 238h-63v62h63v-62zM687 -13v63v63h63v-63h63v-63h-63v-62h-125v62h62zM563 175h62v-63h-62v63zM625 -13h-63v63h63v-63zM500 112h63v-62h-63v62zM500 112
z" />
    <glyph glyph-name="uniE62C" unicode="&#xe62c;" 
d="M551 482v-340h-79v340h79zM553 736v-171h-79v171h79zM552 35v-171h-78v171h78zM522 262h-171v79h171v-79zM233 261h-171v79h171v-79zM964 262h-171v79h171v-79zM702 206v-191h-78v191h78zM815 127h-191v79h191v-79zM965 206v-342h-341v79h258v263h83zM62 736h342v-342
h-79v258h-263v84zM404 394h-342v342h78v-258h264v-84zM62 206h342v-342h-79v258h-263v84zM404 -136h-342v342h78v-258h264v-84zM624 736h341v-342h-78v258h-263v84zM965 394h-341v342h78v-258h263v-84zM965 394z" />
    <glyph glyph-name="uniE62D" unicode="&#xe62d;" 
d="M190 622h70v-70h-70v70zM386 748h-322v-322h126v-56h70v56h126v70h56v56h-56v196zM316 496h-182v182h182v-182zM190 48h70v-70h-70v70zM764 622h70v-70h-70v70zM512 306v-76h70v70h56v70h-56v56h-70v-56v-64zM512 50v-72h70v72v54h56v70h-58h-68v-60v-64zM582 -22h56v-56
h-56v56zM442 -78v-70h74h66v70h-66h-74zM708 104h-70v-54v-72h70h56v70h-56v56zM764 -148h72h64h60v70h-60h-66v56h-70v-56v-70zM960 300v70h-60h-66v-70h66h60zM890 48h70v-70h-70v70zM442 496h70v-70h-70v70zM764 370v56h196v322h-322v-70h-58h-68v-56h68h58v-70h-56v-56
h56v-70h70v-56h56zM708 678h182v-182h-182v182zM708 230h56v-56h-56v56zM834 104h-70v-56h72h54v66v60h70v56h-60h-66v-52v-74zM442 622h70v-70h-70v70zM260 300h56v-70h-56v70zM442 370h-54h-72v-70h70v-70h56v76v64zM386 -22v126h56v70h-54h-198v68v58h-58h-68v-70h70v-56
h-70v-322h322v70h56v56h-56zM316 -78h-182v182h182v-182zM442 230h70v-56h-70v56zM638 300h70v-70h-70v70zM764 300h70v-70h-70v70z" />
    <glyph glyph-name="uniE62E" unicode="&#xe62e;" 
d="M542 633v-34l56 -12v46h-56zM426 633v-46l45 16v30h-45zM477 748v-111h65v56h56v55h-121zM127 388v-115h84v58h-36v57h-48zM66 273h57v-49h-57v49zM429 -25h49v-50h-49v50zM690 19l-28 -36h49zM605 -33h51v-62h115v-50h-293v49h125zM838 206l-43 -81l43 -24v105zM838 88
h121v-121zM843 388h56v-50h-56v50zM843 269h63v69h53v-184h-48v70h-68v45zM766 649h94v-96h-94v96zM719 540v159h182v-190h-150l44 -60h164v299h-304v-169zM169 649h92v-91h-92v91zM302 523v170h-183v-188h176l-42 -56h-187v299h305v-190zM169 54h98v-98h-98v98zM306 66
v-155h-183v190h156l-33 58h-180v-304h297v159zM521 524q5 1 13.5 0.5t33 -4t46.5 -11t50 -24t48.5 -40t35.5 -62t18 -87.5v-12q0 -9 -4 -33.5t-12 -47t-26 -50t-43 -48t-66.5 -35t-93.5 -16.5q-5 1 -13 1.5t-32 6t-45.5 14.5t-47.5 27.5t-44.5 43t-30.5 63.5t-11 86h-62
q0 -5 0.5 -15.5t5.5 -40t14.5 -56.5t31 -60.5t50.5 -58t77 -43t108 -21.5h17q11 0 41.5 5.5t58 15t62 31.5t59 52t42 80t18.5 111q1 6 0.5 16t-5.5 38.5t-15 54.5t-32 58t-52.5 55.5t-81.5 40.5t-115 18zM521 524h-11q-8 0 -29.5 -4.5t-41.5 -12t-45.5 -25t-44.5 -40.5
t-33.5 -61t-18.5 -85h-62q1 6 2 15.5t7 38t16.5 54t32 57.5t50.5 55.5t74.5 40.5t101.5 20zM703 54l182 -183q3 -2 8 -5.5t20 -4.5t29 10q4 3 8 8t5 21t-13 33l-181 176q-40 -43 -58 -55z" />
    <glyph glyph-name="uniE62F" unicode="&#xe62f;" 
d="M354 812h-354v-354h354v354zM276 536h-197v197h197v-197zM236 576h-118v118h118v-118zM512 812v-79h-79v79h79zM512 576v-79h-79v157h79v79h79v-157h-79zM79 379v-79h-79v79h79zM512 -212v79h79v-79h-79zM945 300h79v-79h-236v79h78v79h79v-79zM512 182v-79h-79v79h79z
M945 -212v79h79v-79h-79zM945 103h79v-79v-78h-79v-79h-39v-79h-79v79h39v79h-39v-79h-79v-79h-78v158h78v78h79v79h-79v-79h-78v-78h-158v-79h-79v157h79v79h158v79h275v-79zM788 379v-79h-79v-79h-118v79h-79v-79h-197v79h-79v-79h-157v79h79v79h354v118h79v-118h197z
M0 -212h354v354h-354v-354zM79 64h197v-197h-197v197zM118 24h118v-118h-118v118zM670 812v-354h354v354h-354zM945 536h-197v197h197v-197zM906 576h-118v118h118v-118z" />
    <glyph glyph-name="uniE630" unicode="&#xe630;" 
d="M601 436q-23 1 -39.5 -14.5t-16.5 -39.5q-1 -21 15.5 -37.5t37.5 -16.5q22 0 38 15.5t17 38.5q0 22 -15.5 38t-36.5 16zM510.5 713q-112.5 0 -207.5 -55t-150.5 -150.5t-55.5 -207.5t55.5 -207t150.5 -150.5t207.5 -55.5t207.5 55.5t150 150.5t55 207t-55 207.5
t-150 150.5t-207.5 55zM428.5 108.5q-6.5 -6.5 -19 -19.5t-19.5 -19q-6 -7 -14 -4q-9 3 -10 13v7v5q0 5 -1 6t-6 -1q-7 -2 -21 -7t-22 -7q-7 -3 -12 0q-10 6 -6 17l8 25q6 17 7 19q1 5 0.5 6t-5.5 1h-13q-9 0 -12 9q-4 8 3 14q11 12 40 40q4 5 9 4q10 0 14 -10
q15 -44 56 -66q8 -5 18 -9q9 -2 10.5 -9.5t-5 -14zM745 490q-2 -63 -27 -127q-29 -76 -85 -127q-4 -4 -4 -10q1 -6 2.5 -19.5t1.5 -19.5q5 -47 -32 -74q-21 -15 -81 -54q-13 -9 -26 -2.5t-15 21.5q-2 28 -5 71q-1 8 -2.5 10t-9.5 3q-46 6 -70 44q-12 19 -14 44q-1 6 -7 6
q-44 3 -73 5q-16 1 -22 14t2 27l24 37q3 5 11.5 19t13.5 21q24 38 67 38q7 0 50 -5q4 0 7 3q54 60 139 91q46 16 94 21q29 3 48 -1q7 -1 8.5 -2.5t2.5 -7.5q2 -16 2 -26z" />
    <glyph glyph-name="uniE631" unicode="&#xe631;" 
d="M337 539q-9 -22 -6.5 -34t16 -17.5t38.5 -6t62 0.5h21h20h23q23 0 64 -1q91 -2 108 8q20 12 2 52q-92 211 -175 211q-44 0 -88.5 -60.5t-84.5 -152.5zM729 350q2 6 7 8.5t12.5 1t13.5 -3.5t15 -6t10 -5q15 -6 39 -40t35 -61q12 -28 13.5 -66t-14.5 -77q-37 -77 -89 -148
q-33 -47 -42 -38q-3 5 -11 33.5t-19.5 65.5t-22.5 58q6 10 15 28t25 63.5t18 80.5q1 28 -0.5 53.5t-3 38t-1.5 14.5zM302 349q-1 6 -6 8.5t-13 1t-14 -3.5t-14.5 -6t-10.5 -5q-14 -6 -38 -40t-36 -61q-12 -28 -13 -66t14 -77q37 -77 89 -148q34 -47 42 -38q4 5 12 33.5
t19.5 65.5t22.5 58q-6 10 -15.5 28t-25.5 63.5t-17 80.5q-2 28 -0.5 53.5t3.5 38t1 14.5zM441 -32h142v-50l-48 1v-68h-50v68l-44 1v48zM702 452q0 2 -0.5 4.5t-5.5 7t-14 4.5l-344 -2h-4q-2 0 -6 -4t-4 -11t-1.5 -29.5t-2 -33t-0.5 -31t0.5 -41.5t2.5 -46q8 -120 72 -265
q4 -10 8.5 -13t12.5 -3h12h30h39h42h39h28h11q14 -3 20 12q53 132 70 247q2 16 3 35.5t0 38.5v38q-1 19 -2.5 35.5t-3 29t-2.5 19.5v8zM510.5 288q-29.5 0 -50 21t-20.5 50.5t20.5 50.5t50 21t50.5 -21t21 -50.5t-21 -50.5t-50.5 -21z" />
    <glyph glyph-name="uniE632" unicode="&#xe632;" 
d="M493.5 287.5q16.5 -16.5 39.5 -16.5t39.5 16.5t16.5 39.5t-16.5 39.5t-39.5 16.5t-39.5 -16.5t-16.5 -39.5t16.5 -39.5zM512 748q-91 0 -174 -35.5t-143 -95.5t-95.5 -143t-35.5 -174t35.5 -174t95.5 -143t143 -95.5t174 -35.5t174 35.5t143 95.5t95.5 143t35.5 174
t-35.5 174t-95.5 143t-143 95.5t-174 35.5zM192 211q-1 5 -2 14t1 35.5t9 53t26.5 61.5t49.5 65q18 18 39 25.5t38.5 6.5t32 -5t23.5 -8l8 -5q-8 -9 -22 -26.5t-48.5 -70t-59.5 -104.5q-31 -2 -55 -12.5t-32 -20.5zM323 64v26l-57 -29l27 59l-34 -11l24 56l89 -88zM647 70
q-30 -30 -64.5 -50t-62.5 -27t-52 -9t-37 -1t-13 2q4 3 10 9t17.5 30.5t14.5 55.5q52 25 102 57.5t74.5 52t24.5 20.5q2 -3 4.5 -8.5t7.5 -22.5t6 -33t-7 -37.5t-25 -38.5zM639 225q-55 -56 -235 -151l-123 123q10 20 27 51.5t57.5 95.5t65.5 89q35 35 76 61l194 -193
q-27 -42 -62 -76zM712 319l-187 186q108 62 215 46l54 54l15 -16l-52 -52q2 -15 2.5 -34t-2 -48t-14 -65t-31.5 -71z" />
    <glyph glyph-name="uniE633" unicode="&#xe633;" 
d="M720 -140q0 3 0.5 7.5t-1 18.5t-5.5 28.5t-15 35.5t-28 42q25 73 41.5 154.5t20 117t3.5 44.5q5 -1 12.5 -4t28 -14t35.5 -26t27.5 -42.5t12.5 -61.5q0 -163 -102 -272q-17 -18 -30 -28zM399 -68q-9 30 -22 76t-35 145.5t-22 147.5q0 67 14 131h356q13 -64 13 -131
q0 -104 -77 -367l-1 -2h-226zM512 373q-30 0 -51.5 -22t-21.5 -53.5t21.5 -53.5t51.5 -22t51 22t21 53.5t-21 53.5t-51 22zM496 709v103h28v-100q17 -12 34.5 -29.5t42 -48t47 -76t35.5 -98.5h-343q14 51 35 95.5t45 75t41.5 48t34.5 30.5zM304 -140q-5 4 -14 12t-32 35.5
t-40.5 59t-31.5 84t-14 109.5q0 25 6 46t16.5 36t23 26.5t25 19t22.5 12t17 6.5l6 2q1 -17 4 -46.5t19.5 -113t41.5 -156.5q-26 -32 -38.5 -65t-11.5 -50zM560 -155l-24 25l-25 -82l-30 82l-21 -43l-30 77h163z" />
    <glyph glyph-name="uniE634" unicode="&#xe634;" 
d="M691 351q-53 0 -90.5 37.5t-37.5 90.5t37.5 90.5t90.5 37.5t90.5 -37.5t37.5 -90.5t-37.5 -90.5t-90.5 -37.5zM691 556q-32 0 -54.5 -22.5t-22.5 -54.5t22.5 -54.5t54.5 -22.5t54.5 22.5t22.5 54.5t-22.5 54.5t-54.5 22.5zM26 -212q-11 0 -18 8q-12 11 -6 26
q118 327 246 327q42 0 77 -36q45 -45 33 -99q-25 -116 -324 -224q-4 -2 -8 -2zM248 98q-39 0 -86 -65q-46 -62 -92 -175q103 41 164 83q66 46 75 84q5 27 -20 52q-20 21 -41 21zM998 812q-200 0 -352 -67q-125 -55 -211 -153q-15 -18 -29 -36q-67 -5 -135 -53
q-57 -40 -114 -110q-62 -77 -103 -158q-10 -20 8 -32q7 -5 15 -5q10 0 18 7q24 24 66 48q74 41 152 46q18 -46 85 -113t113 -85q-5 -78 -46 -152q-24 -42 -48 -66q-15 -15 -3 -33q8 -11 21 -11q6 0 12 3q81 41 158 103q70 57 110 114q48 68 52 135q19 14 37 29
q98 86 153 211q67 152 67 352v26h-26zM159 310q105 152 208 186q-45 -77 -57 -146q-78 -4 -151 -40zM522 -53q36 74 40 151q69 12 146 57q-34 -103 -186 -208zM770 262q-48 -43 -103.5 -71t-85.5 -36.5t-43 -8.5q-11 0 -39 21q-31 21 -65 55t-55 65q-21 28 -21 39
q0 13 8.5 43t36.5 85.5t71 103.5q84 96 211 147.5t288 54.5q-4 -160 -55.5 -287t-147.5 -211z" />
    <glyph glyph-name="uniE635" unicode="&#xe635;" 
d="M512 656l114 -232l256 -37l-185 -180l44 -255l-229 120l-229 -120l44 255l-185 180l256 37z" />
    <glyph glyph-name="uniE636" unicode="&#xe636;" 
d="M514 749l106 -326h342l-277 -201l106 -326l-277 201l-277 -201l106 326l-278 201h343zM514 749z" />
    <glyph glyph-name="uniE637" unicode="&#xe637;" 
d="M512 737l146 -274l298 -58l-207 -228l37 -310l-274 132l-275 -132l38 310l-208 228l298 58z" />
    <glyph glyph-name="uniE638" unicode="&#xe638;" 
d="M959 403l-300 59l-148 272l-147 -272l-300 -59l209 -227l-38 -308l276 132l277 -132l-38 308zM512 48v594l119 -220l243 -48l-171 -183l33 -250z" />
    <glyph glyph-name="uniE639" unicode="&#xe639;" 
d="M511 734l148 -272l300 -59l-209 -227l38 -308l-277 132l-276 -132l38 308l-209 227l300 59z" />
    <glyph glyph-name="uniE63A" unicode="&#xe63a;" 
d="M512 704v-670l-262 -137l50 291l-212 207l293 43zM774 -126q-5 0 -10 3l-252 132l-252 -132q-12 -7 -23.5 1.5t-8.5 21.5l48 281l-204 198q-10 10 -5.5 23.5t17.5 15.5l282 40l126 255q6 13 20 13t20 -13l126 -255l282 -40q13 -2 17.5 -15.5t-5.5 -23.5l-204 -198
l48 -281q3 -13 -9 -22q-6 -4 -13 -4zM136 380l180 -175q8 -9 6 -20l-42 -248l222 117q10 6 20 0l222 -117l-42 248q-2 11 6 20l180 175l-248 36q-12 1 -17 12l-111 225l-111 -225q-5 -11 -17 -12z" />
    <glyph glyph-name="uniE63B" unicode="&#xe63b;" 
d="M959 423l-309 45l-138 280v0l-139 -280l-309 -45v0l224 -218l-53 -308v-1l277 146l276 -146l-52 309zM538 91l-26 14v517l88 -179l13 -26l29 -4l198 -29l-143 -140l-21 -20l5 -29l34 -197z" />
    <glyph glyph-name="uniE63C" unicode="&#xe63c;" 
d="M512 694l128 -260l286 -41l-207 -202l49 -285l-256 135l-256 -135l49 285l-207 202l286 41z" />
  </font>
</defs>
</svg>
